# xmcd
#
# Track frame offsets: 
#        150
#        26826
#        47757
#        64609
#        118073
#        144279
#        163315
#        203943
#        265033
#        293579
#
# Disc length: 4612 seconds
#
# Revision: 0
# Processed by: cddbd v1.5.2PL0 Copyright (c) Steve Scherf et al.
# Submitted via: ExactAudioCopyFreeDBPlugin 1.0
#
DISCID=9212020a
DTITLE=Leif de Leeuw Band - Live in concert
DYEAR=2018
DGENRE=Blues
TTITLE0=Fire in the kitchen
TTITLE1=Listen here people
TTITLE2=Never giving in
TTITLE3=Little wing
TTITLE4=Getting older
TTITLE5=All coming back
TTITLE6=Be loyal
TTITLE7=Once and for all
TTITLE8=Strictly confidential
TTITLE9=Whipping post
EXTD=
EXTT0=
EXTT1=
EXTT2=
EXTT3=
EXTT4=
EXTT5=
EXTT6=
EXTT7=
EXTT8=
EXTT9=
PLAYORDER=
